<svg xmlns="http://www.w3.org/2000/svg" width="400" height="600" viewBox="0 0 400 600">
    <!-- 浅蓝色背景 -->
    <rect width="400" height="600" fill="#f8fafc"/>
    
    <!-- 纸张质感纹理 -->
    <pattern id="paperTexture" width="100" height="100" patternUnits="userSpaceOnUse">
        <path d="M10,10 Q20,5 30,10 T50,10 T70,10 T90,10" fill="none" stroke="#e2e8f0" stroke-width="0.5"/>
        <path d="M10,30 Q20,25 30,30 T50,30 T70,30 T90,30" fill="none" stroke="#e2e8f0" stroke-width="0.5"/>
        <path d="M10,50 Q20,45 30,50 T50,50 T70,50 T90,50" fill="none" stroke="#e2e8f0" stroke-width="0.5"/>
        <path d="M10,70 Q20,65 30,70 T50,70 T70,70 T90,70" fill="none" stroke="#e2e8f0" stroke-width="0.5"/>
        <path d="M10,90 Q20,85 30,90 T50,90 T70,90 T90,90" fill="none" stroke="#e2e8f0" stroke-width="0.5"/>
    </pattern>
    <rect width="400" height="600" fill="url(#paperTexture)" opacity="0.3"/>
    
    <!-- 中心装饰 -->
    <circle cx="200" cy="300" r="150" fill="none" stroke="#e0f2fe" stroke-width="1"/>
    <circle cx="200" cy="300" r="130" fill="none" stroke="#e0f2fe" stroke-width="1"/>
</svg>